<mxfile host="app.diagrams.net" modified="2021-05-11T16:08:31.454Z" agent="5.0 (Windows NT 10.0; Win64; x64) AppleWebKit/537.36 (KHTML, like Gecko) Chrome/90.0.4430.93 Safari/537.36 Edg/90.0.818.56" etag="JGiW_uWckwBTKxsBAoFg" version="14.6.11" type="github">
  <diagram id="batF17xP7W7M_B50-eTJ" name="Page-1">
    <mxGraphModel dx="1038" dy="580" grid="1" gridSize="10" guides="1" tooltips="1" connect="1" arrows="1" fold="1" page="1" pageScale="1" pageWidth="827" pageHeight="1169" math="0" shadow="0">
      <root>
        <mxCell id="0" />
        <mxCell id="1" parent="0" />
        <mxCell id="lSEGTtJU9pQDGZRM_zwp-2" value="STM32处理器" style="rounded=0;whiteSpace=wrap;html=1;" vertex="1" parent="1">
          <mxGeometry x="430" y="450" width="110" height="160" as="geometry" />
        </mxCell>
        <mxCell id="lSEGTtJU9pQDGZRM_zwp-4" value="驱动电路" style="rounded=0;whiteSpace=wrap;html=1;" vertex="1" parent="1">
          <mxGeometry x="265" y="470" width="80" height="50" as="geometry" />
        </mxCell>
        <mxCell id="lSEGTtJU9pQDGZRM_zwp-5" value="电机" style="rounded=0;whiteSpace=wrap;html=1;" vertex="1" parent="1">
          <mxGeometry x="105" y="470" width="95" height="50" as="geometry" />
        </mxCell>
        <mxCell id="lSEGTtJU9pQDGZRM_zwp-6" value="舵机" style="rounded=0;whiteSpace=wrap;html=1;" vertex="1" parent="1">
          <mxGeometry x="270" y="565" width="95" height="55" as="geometry" />
        </mxCell>
        <mxCell id="lSEGTtJU9pQDGZRM_zwp-7" value="电源" style="rounded=0;whiteSpace=wrap;html=1;" vertex="1" parent="1">
          <mxGeometry x="120" y="590" width="80" height="70" as="geometry" />
        </mxCell>
        <mxCell id="lSEGTtJU9pQDGZRM_zwp-8" value="AR9331 WiFi Soc" style="rounded=0;whiteSpace=wrap;html=1;" vertex="1" parent="1">
          <mxGeometry x="620" y="450" width="90" height="60" as="geometry" />
        </mxCell>
        <mxCell id="lSEGTtJU9pQDGZRM_zwp-9" value="" style="endArrow=classic;html=1;exitX=0.385;exitY=0.026;exitDx=0;exitDy=0;exitPerimeter=0;" edge="1" parent="1" source="lSEGTtJU9pQDGZRM_zwp-7" target="lSEGTtJU9pQDGZRM_zwp-5">
          <mxGeometry width="50" height="50" relative="1" as="geometry">
            <mxPoint x="158" y="590" as="sourcePoint" />
            <mxPoint x="151" y="530" as="targetPoint" />
          </mxGeometry>
        </mxCell>
        <mxCell id="lSEGTtJU9pQDGZRM_zwp-10" value="" style="endArrow=classic;html=1;exitX=1;exitY=0;exitDx=0;exitDy=0;entryX=0.5;entryY=1;entryDx=0;entryDy=0;" edge="1" parent="1" source="lSEGTtJU9pQDGZRM_zwp-7" target="lSEGTtJU9pQDGZRM_zwp-4">
          <mxGeometry width="50" height="50" relative="1" as="geometry">
            <mxPoint x="190" y="640" as="sourcePoint" />
            <mxPoint x="320" y="560" as="targetPoint" />
            <Array as="points">
              <mxPoint x="200" y="560" />
              <mxPoint x="305" y="560" />
            </Array>
          </mxGeometry>
        </mxCell>
        <mxCell id="lSEGTtJU9pQDGZRM_zwp-12" value="" style="endArrow=classic;html=1;exitX=1;exitY=1;exitDx=0;exitDy=0;entryX=0.5;entryY=1;entryDx=0;entryDy=0;" edge="1" parent="1" source="lSEGTtJU9pQDGZRM_zwp-7" target="lSEGTtJU9pQDGZRM_zwp-2">
          <mxGeometry width="50" height="50" relative="1" as="geometry">
            <mxPoint x="290" y="620" as="sourcePoint" />
            <mxPoint x="440" y="648" as="targetPoint" />
            <Array as="points">
              <mxPoint x="485" y="660" />
            </Array>
          </mxGeometry>
        </mxCell>
        <mxCell id="lSEGTtJU9pQDGZRM_zwp-30" value="传感器" style="rounded=0;whiteSpace=wrap;html=1;" vertex="1" parent="1">
          <mxGeometry x="620" y="550" width="90" height="60" as="geometry" />
        </mxCell>
        <mxCell id="lSEGTtJU9pQDGZRM_zwp-36" value="" style="html=1;shadow=0;dashed=0;align=center;verticalAlign=middle;shape=mxgraph.arrows2.arrow;dy=0.59;dx=27.6;notch=0;rotation=-180;" vertex="1" parent="1">
          <mxGeometry x="365" y="570" width="65" height="40" as="geometry" />
        </mxCell>
        <mxCell id="lSEGTtJU9pQDGZRM_zwp-39" value="" style="endArrow=classic;html=1;exitX=1.005;exitY=0.151;exitDx=0;exitDy=0;exitPerimeter=0;" edge="1" parent="1" source="lSEGTtJU9pQDGZRM_zwp-7">
          <mxGeometry width="50" height="50" relative="1" as="geometry">
            <mxPoint x="230" y="660" as="sourcePoint" />
            <mxPoint x="270" y="600" as="targetPoint" />
          </mxGeometry>
        </mxCell>
        <mxCell id="lSEGTtJU9pQDGZRM_zwp-40" value="" style="html=1;shadow=0;dashed=0;align=center;verticalAlign=middle;shape=mxgraph.arrows2.twoWayArrow;dy=0.65;dx=22;" vertex="1" parent="1">
          <mxGeometry x="540" y="455" width="80" height="50" as="geometry" />
        </mxCell>
        <mxCell id="lSEGTtJU9pQDGZRM_zwp-41" value="" style="html=1;shadow=0;dashed=0;align=center;verticalAlign=middle;shape=mxgraph.arrows2.twoWayArrow;dy=0.65;dx=22;" vertex="1" parent="1">
          <mxGeometry x="540" y="555" width="80" height="50" as="geometry" />
        </mxCell>
        <mxCell id="lSEGTtJU9pQDGZRM_zwp-42" value="" style="html=1;shadow=0;dashed=0;align=center;verticalAlign=middle;shape=mxgraph.arrows2.arrow;dy=0.59;dx=27.6;notch=0;rotation=-180;" vertex="1" parent="1">
          <mxGeometry x="345" y="475" width="85" height="40" as="geometry" />
        </mxCell>
        <mxCell id="lSEGTtJU9pQDGZRM_zwp-43" value="" style="html=1;shadow=0;dashed=0;align=center;verticalAlign=middle;shape=mxgraph.arrows2.arrow;dy=0.59;dx=27.6;notch=0;rotation=-180;" vertex="1" parent="1">
          <mxGeometry x="200" y="480" width="65" height="35" as="geometry" />
        </mxCell>
      </root>
    </mxGraphModel>
  </diagram>
</mxfile>
